<svg width="85" height="85" viewBox="0 0 85 85" fill="none" xmlns="http://www.w3.org/2000/svg">
<path d="M80.1756 64.6062V61.238C80.1756 58.1694 77.7568 55.6618 74.7263 55.5042V28.0397H78.0784C79.2364 28.0397 80.1756 27.1008 80.1756 25.9424V16.9229C80.1756 15.9382 79.4905 15.086 78.5289 14.8745L42.9506 7.04902C42.6534 6.98366 42.3462 6.98366 42.0494 7.04902L6.47105 14.8749C5.50947 15.0864 4.82437 15.9386 4.82437 16.9232V25.9424C4.82437 27.1008 5.76358 28.0397 6.92161 28.0397H10.2737V55.5045C7.24319 55.6618 4.82437 58.1694 4.82437 61.2384V64.6066C2.08571 65.0998 0 67.4952 0 70.3736V75.6248C0 76.7832 0.939217 77.722 2.09725 77.722H6.92161H78.0784H82.9027C84.0608 77.722 85 76.7832 85 75.6248V70.3736C85 67.4952 82.9139 65.0998 80.1756 64.6062ZM9.01886 61.238C9.01886 60.381 9.71619 59.6836 10.5733 59.6836H74.4267C75.2838 59.6836 75.9811 60.381 75.9811 61.238V64.508H9.01886V61.238ZM20.4384 55.4891H14.4682V28.651H20.4384V55.4891ZM43.6692 28.0397V55.4891H41.3311V28.0397H43.6692ZM53.8342 55.4891H47.8637V28.651H53.8342V55.4891ZM70.5318 55.4891H64.5616V28.651H70.5318V55.4891ZM37.1363 28.651V55.4891H31.1658V28.651H37.1363ZM4.19449 70.3736C4.19449 69.4522 4.94426 68.7028 5.8653 68.7028H6.92126H9.01851H75.9808H78.078H79.134C80.0554 68.7028 80.8048 69.4526 80.8048 70.3736V73.5275H75.9804H9.01886H4.19449V70.3736ZM60.3671 55.4891H58.0287V28.0397H60.3671V55.4891ZM9.01886 18.609L42.5 11.2446L75.9811 18.609V23.8448H9.01886V18.609ZM26.9713 28.0397V55.4891H24.6329V28.0397H26.9713Z" fill="#FFBA08"/>
</svg>
